<?xml version="1.0" standalone="no"?>
<!DOCTYPE svg PUBLIC "-//W3C//DTD SVG 20010904//EN"
 "http://www.w3.org/TR/2001/REC-SVG-20010904/DTD/svg10.dtd">
<svg version="1.0" xmlns="http://www.w3.org/2000/svg"
 width="700.000000pt" height="700.000000pt" viewBox="0 0 700.000000 700.000000"
 preserveAspectRatio="xMidYMid meet">
<metadata>
Created by potrace 1.11, written by Peter Selinger 2001-2013
</metadata>
<g transform="translate(0.000000,700.000000) scale(0.100000,-0.100000)"
fill="#000000" stroke="none">
<path d="M3445 5536 c-22 -29 -59 -75 -82 -102 -40 -48 -232 -278 -298 -359
-18 -22 -122 -148 -232 -280 -109 -132 -250 -303 -313 -379 -515 -623 -493
-597 -505 -610 -5 -6 -30 -36 -55 -66 -25 -30 -52 -64 -62 -75 -99 -119 -341
-411 -368 -445 -39 -48 -133 -161 -190 -230 -21 -25 -62 -74 -91 -110 -30 -36
-56 -67 -59 -70 -3 -3 -23 -27 -45 -55 -21 -27 -42 -52 -45 -55 -3 -3 -57 -68
-120 -145 -63 -77 -117 -142 -120 -145 -3 -3 -57 -68 -120 -145 -63 -77 -117
-142 -120 -145 -3 -3 -25 -30 -50 -60 -25 -30 -47 -57 -50 -60 -3 -3 -36 -43
-74 -90 -38 -47 -75 -92 -82 -101 -12 -14 286 -15 3135 -15 l3149 0 -21 27
c-42 52 -463 561 -615 744 -10 11 -35 43 -57 70 -22 28 -42 52 -46 55 -3 3
-70 84 -150 180 -79 96 -152 184 -161 195 -9 11 -132 160 -273 330 -141 171
-271 328 -289 350 -60 71 -111 132 -126 151 -44 54 -258 314 -284 345 -17 19
-47 55 -67 80 -95 116 -446 540 -484 584 -24 28 -54 64 -67 80 -12 17 -30 39
-40 50 -89 107 -290 351 -318 385 -19 24 -40 48 -45 54 -6 6 -30 35 -53 64
-24 28 -49 52 -55 52 -7 -1 -30 -25 -52 -54z m126 -433 c35 -43 66 -80 69 -83
3 -3 35 -41 71 -86 l66 -80 -19 -25 c-11 -13 -27 -33 -36 -44 -28 -33 -216
-260 -219 -265 -4 -4 -19 13 -78 86 -16 20 -35 42 -40 48 -41 45 -155 190
-155 198 0 6 33 49 73 97 73 89 103 126 159 194 17 20 34 37 38 37 4 0 36 -35
71 -77z m-435 -560 c101 -123 122 -148 161 -193 l33 -37 -69 -81 c-37 -44 -83
-99 -102 -122 -19 -23 -39 -47 -44 -54 -6 -6 -41 -48 -79 -94 -37 -45 -71 -80
-75 -78 -14 9 -266 317 -266 325 0 5 19 31 41 57 37 44 212 255 283 341 14 18
29 33 32 33 3 0 41 -43 85 -97z m884 17 c34 -41 69 -84 79 -95 9 -11 58 -70
109 -132 l93 -112 -137 -166 c-75 -91 -140 -165 -143 -165 -9 0 -346 410 -346
421 0 13 267 330 276 327 4 -2 35 -37 69 -78z m-343 -671 l173 -211 -60 -71
c-33 -40 -70 -84 -82 -99 -13 -14 -63 -76 -113 -136 -49 -61 -95 -113 -101
-115 -6 -3 -80 79 -165 181 -85 103 -162 194 -171 204 -10 10 -18 22 -18 26 0
4 41 57 91 117 50 61 107 130 127 154 21 25 42 49 47 55 6 6 27 32 48 59 21
26 41 47 45 47 4 -1 85 -96 179 -211z m854 54 c29 -38 56 -70 59 -73 3 -3 24
-27 45 -55 22 -27 43 -52 46 -55 18 -14 159 -193 159 -202 0 -10 -258 -338
-265 -338 -4 0 -69 77 -150 175 -99 121 -199 242 -217 261 -18 21 -18 22 98
160 130 156 163 194 167 194 2 0 28 -30 58 -67z m-1944 -25 c37 -46 72 -88 78
-94 15 -17 45 -53 89 -107 l39 -48 -20 -22 c-10 -12 -64 -76 -119 -142 -54
-66 -103 -125 -109 -131 -5 -6 -25 -29 -43 -52 -79 -96 -80 -98 -95 -82 -8 8
-68 83 -134 166 -100 124 -119 153 -109 166 19 25 79 100 101 124 11 12 72 85
135 163 63 77 116 141 117 141 1 0 32 -37 70 -82z m1623 -674 c102 -123 187
-229 188 -234 3 -8 -200 -275 -228 -300 -3 -3 -30 -36 -60 -74 l-54 -69 -25
30 c-33 37 -38 44 -220 262 l-151 182 123 147 c67 81 147 177 177 214 30 37
57 67 60 67 3 0 88 -101 190 -225z m-1066 6 l175 -209 -191 -228 c-104 -125
-191 -229 -192 -230 -1 -2 -80 94 -175 213 -150 188 -171 218 -159 232 20 26
68 85 87 107 10 11 71 85 136 165 104 126 133 159 142 160 1 0 80 -94 177
-210z m-1030 -64 c71 -90 128 -167 127 -172 -2 -7 -164 -205 -235 -287 -10
-12 -33 -39 -51 -60 l-32 -37 -34 42 c-42 51 -147 177 -199 237 l-38 45 75 90
c41 50 113 139 161 198 48 59 89 107 92 107 3 0 63 -73 134 -163z m3045 -1
c73 -89 144 -175 158 -191 13 -15 22 -34 21 -40 -2 -7 -63 -85 -137 -174 -107
-128 -137 -158 -146 -148 -7 7 -45 54 -86 103 -41 50 -81 99 -91 110 -83 101
-128 160 -126 167 5 13 262 337 268 337 3 0 65 -74 139 -164z m-1345 -739
c174 -209 316 -382 316 -385 0 -3 -288 -6 -640 -6 -420 0 -640 3 -640 10 0 6
15 26 33 45 18 19 98 114 177 210 167 202 165 199 220 265 23 28 51 61 63 75
11 14 32 39 46 55 14 17 41 50 60 73 19 24 37 41 42 40 4 -2 149 -174 323
-382z m-1224 144 c93 -118 169 -217 168 -221 -2 -3 -22 -28 -45 -55 -92 -109
-174 -207 -193 -231 -16 -21 -28 -25 -70 -26 -27 0 -52 2 -53 4 -32 39 -203
245 -207 249 -14 12 -90 108 -90 113 0 5 86 113 115 143 5 6 53 63 105 127 52
63 96 114 97 113 1 -1 79 -98 173 -216z m2065 114 c22 -27 42 -51 45 -54 3 -3
35 -41 70 -85 36 -44 71 -86 78 -94 7 -8 20 -24 29 -37 15 -23 13 -26 -23 -72
-21 -26 -41 -49 -44 -52 -3 -3 -28 -32 -55 -65 -28 -33 -52 -62 -55 -65 -7 -7
-84 -102 -91 -112 -3 -5 -31 -10 -63 -12 -63 -3 -62 -4 -123 72 -21 26 -43 52
-49 57 -6 6 -41 47 -78 92 l-68 83 19 24 c10 14 88 113 173 220 l155 195 20
-23 c11 -13 38 -45 60 -72z m-3014 -144 c52 -63 99 -121 103 -127 4 -8 -48
-78 -138 -187 -80 -96 -151 -178 -158 -182 -9 -6 -327 -9 -501 -5 l-38 1 57
68 c31 37 66 78 78 92 12 14 115 138 229 277 l208 252 33 -37 c17 -20 75 -89
127 -152z m4067 -40 c74 -91 138 -167 142 -170 3 -3 44 -52 90 -110 47 -58 99
-121 117 -140 18 -19 30 -36 28 -39 -3 -2 -128 -4 -279 -4 l-275 -1 -146 177
c-80 97 -145 179 -145 182 0 3 11 18 24 33 92 106 119 138 181 215 l70 87 28
-33 c16 -17 90 -106 165 -197z m-3736 -357 c21 -27 49 -60 63 -75 14 -16 22
-28 18 -29 -4 0 -65 -1 -134 -2 -114 -2 -125 0 -115 14 37 52 113 138 121 138
6 1 27 -20 47 -46z m3157 -30 c32 -38 50 -68 43 -72 -5 -3 -57 -5 -114 -4
-131 2 -125 2 -113 11 6 4 34 35 64 70 29 34 56 62 59 61 4 0 31 -30 61 -66z"/>
<path d="M360 1662 c-67 -7 -96 -22 -118 -61 -27 -48 -28 -96 -2 -139 41 -67
-230 -62 3266 -62 l3177 0 34 21 c87 54 80 184 -12 228 -25 12 -495 14 -3175
15 -1730 1 -3156 0 -3170 -2z"/>
</g>
</svg>
